Coordinates
nRows=12
nColumns=24

# SIMM Motion File Header:
name Coordinates
datacolumns 24
datarows 12
otherdata 1
range 0.56567000000000001000 0.57667000000000002000
endheader
time	pelvis_tx	pelvis_ty	pelvis_tz	pelvis_tilt	pelvis_list	pelvis_rotation	hip_flexion_r	hip_adduction_r	hip_rotation_r	knee_angle_r	ankle_angle_r	subtalar_angle_r	mtp_angle_r	hip_flexion_l	hip_adduction_l	hip_rotation_l	knee_angle_l	ankle_angle_l	subtalar_angle_l	mtp_angle_l	lumbar_extension	lumbar_bending	lumbar_rotation
      0.56567000000000001000	      1.29267201868991970000	      0.66184433921714592000	     -0.25063800983045520000	      6.69577232859311340000	     -1.73247576308276810000	      0.58950401426262045000	     17.56894732183898400000	      1.99194762063297870000	     -1.38291703190402850000	    -22.59205633260420100000	     -2.09073039772444020000	      0.00000000000006735527	     -0.00000000000018906855	    -23.22772898658323700000	     -1.21654039405686510000	     -4.80519064108948510000	    -29.37867379755244500000	    -18.10413690538646500000	     -0.00000000000006036742	      0.00000000000026725531	    -23.24330879897049900000	      7.37888962240690030000	     -6.10447222696996580000
      0.56667000000000001000	      1.29385875891905200000	      0.66206877022441257000	     -0.25053637646710281000	      6.69476754141384860000	     -1.73690266025554370000	      0.59928930581831064000	     17.47248498058866100000	      2.00147161868809760000	     -1.35244681824223910000	    -22.62677286921438800000	     -1.94791827766813050000	      0.00000000000006788644	     -0.00000000000018957657	    -23.03515564004852200000	     -1.24817016287339590000	     -4.81231796418932590000	    -29.73513484862897400000	    -18.43560595167984000000	     -0.00000000000006071248	      0.00000000000026843030	    -23.23911894066434400000	      7.41703449133975120000	     -6.12255041221895360000
      0.56767000000000001000	      1.29503973162689560000	      0.66229466086443967000	     -0.25043520651533324000	      6.69239983857145140000	     -1.73940004905401110000	      0.60932457844354526000	     17.37484395058841700000	      2.00844108875491360000	     -1.32592097649679450000	    -22.65509173524874200000	     -1.80537541714577170000	      0.00000000000006837085	     -0.00000000000018992355	    -22.83710538633213400000	     -1.27817893102820410000	     -4.82028721381491200000	    -30.09424422498619800000	    -18.74884312991778400000	     -0.00000000000006101774	      0.00000000000026948771	    -23.23343828746888900000	      7.45211329103734870000	     -6.13814611711879100000
      0.56867000000000001000	      1.29621878182764290000	      0.66252103804872020000	     -0.25033419103409127000	      6.68957783050800980000	     -1.74125426839437660000	      0.61944317809196114000	     17.27681002433820400000	      2.01455904949229620000	     -1.30070992539012980000	    -22.68127804442448800000	     -1.66292230980139610000	      0.00000000000006883968	     -0.00000000000019021685	    -22.63722949688852300000	     -1.30764736562910590000	     -4.82853710561574710000	    -30.45423637643698500000	    -19.05600301880393100000	     -0.00000000000006130975	      0.00000000000027050593	    -23.22726070264366900000	      7.48617006765652970000	     -6.15291432856891250000
      0.56967000000000001000	      1.29739600493071670000	      0.66274793220388473000	     -0.25023318319557775000	      6.68638427648096290000	     -1.74260897893424540000	      0.62957868013688534000	     17.17835099840540300000	      2.02003838908478530000	     -1.27663379091643580000	    -22.70536547399621700000	     -1.52143721867166160000	      0.00000000000006930445	     -0.00000000000019052016	    -22.43578621407667100000	     -1.33674942140951010000	     -4.83742943822391510000	    -30.81472093317161100000	    -19.35843035361030600000	     -0.00000000000006160986	      0.00000000000027153344	    -23.22070125859208600000	      7.51934082525496270000	     -6.16676992643266080000
      0.57067000000000001000	      1.29856774674076950000	      0.66297637727170122000	     -0.25013219828524963000	      6.68207608456310180000	     -1.74246516307262890000	      0.63976488937133402000	     17.07861667342484300000	      2.02360186524259910000	     -1.25596240634164550000	    -22.72315626475592900000	     -1.38285617618584180000	      0.00000000000006975703	     -0.00000000000019085348	    -22.22964075116009000000	     -1.36475234072842590000	     -4.84824909325407650000	    -31.17668270575773800000	    -19.64666002617741100000	     -0.00000000000006193428	      0.00000000000027258883	    -23.21299623686142900000	      7.54985352579115700000	     -6.17788768353729360000
      0.57167000000000001000	      1.29973948855082220000	      0.66320482233951761000	     -0.25003121337492157000	      6.67776789264524060000	     -1.74232134721101240000	      0.64995109860578271000	     16.97888234844428400000	      2.02716534140041290000	     -1.23529102176685510000	    -22.74094705551563700000	     -1.24427513370002170000	      0.00000000000007020961	     -0.00000000000019118680	    -22.02349528824351300000	     -1.39275526004734140000	     -4.85906874828423870000	    -31.53864447834386900000	    -19.93488969874451300000	     -0.00000000000006225870	      0.00000000000027364423	    -23.20529121513077100000	      7.58036622632735120000	     -6.18900544064192730000
      0.57267000000000001000	      1.30090512950358690000	      0.66343507634265586000	     -0.24992989855845540000	      6.67237680300444950000	     -1.74065288247139140000	      0.66002118652823061000	     16.87772924633957700000	      2.02889905337688340000	     -1.21802047351608220000	    -22.75207716035825100000	     -1.10908857801459450000	      0.00000000000007070153	     -0.00000000000019163641	    -21.81263480663152200000	     -1.41976161295633460000	     -4.87292063909958450000	    -31.90094127882529300000	    -20.21046651561597300000	     -0.00000000000006260699	      0.00000000000027480220	    -23.19653430904800500000	      7.60797554500244550000	     -6.19678438509517630000
      0.57367000000000001000	      1.30206916907700450000	      0.66366579808116410000	     -0.24982821302047054000	      6.66674338782208850000	     -1.73858849901976260000	      0.66985381860504034000	     16.77625327903959400000	      2.03024003154510790000	     -1.20144358404278570000	    -22.76163740783640700000	     -0.97497421970984088000	      0.00000000000007118181	     -0.00000000000019205131	    -21.60072936740075600000	     -1.44648894749284170000	     -4.88801083908564760000	    -32.26299712160584900000	    -20.48237232520179800000	     -0.00000000000006295607	      0.00000000000027597517	    -23.18757814945104900000	      7.63472752483077510000	     -6.20346903166682570000
      0.57467000000000001000	      1.30322840451238080000	      0.66389792302578199000	     -0.24972541531792944000	      6.66038299601501560000	     -1.73533635943211050000	      0.67897408314493546000	     16.67380871615379000000	      2.03040280828859480000	     -1.18694767090191870000	    -22.76648808322118700000	     -0.84407645354710858000	      0.00000000000007162722	     -0.00000000000019236208	    -21.38568905531369400000	     -1.47237922691189140000	     -4.90681596658386620000	    -32.62433009128381700000	    -20.74326511293071100000	     -0.00000000000006330747	      0.00000000000027719312	    -23.17802422931151800000	      7.65890748811881040000	     -6.20687078459367390000
      0.57567000000000002000	      1.30438763994775700000	      0.66413004797039987000	     -0.24962261761538834000	      6.65402260420794180000	     -1.73208421984445820000	      0.68809434768483058000	     16.57136415326798600000	      2.03056558503208160000	     -1.17245175776105160000	    -22.77133875860597100000	     -0.71317868738437640000	      0.00000000000007207263	     -0.00000000000019267285	    -21.17064874322662900000	     -1.49826950633094100000	     -4.92562109408208570000	    -32.98566306096177700000	    -21.00415790065962400000	     -0.00000000000006365888	      0.00000000000027841106	    -23.16847030917198700000	      7.68308745140684570000	     -6.21027253752052120000
      0.57667000000000002000	      1.30554128536761070000	      0.66436393255431769000	     -0.24951749823163510000	      6.64711706958621210000	     -1.72735370298630820000	      0.69567221716421779000	     16.46780380353438000000	      2.02948602759383020000	     -1.16006714094897160000	    -22.77125795955596000000	     -0.58797426047124990000	      0.00000000000007253103	     -0.00000000000019300303	    -20.95282196614330800000	     -1.52304573984151630000	     -4.95017369903967540000	    -33.34524895893768100000	    -21.24877250306206400000	     -0.00000000000006401863	      0.00000000000027963581	    -23.15866385847756300000	      7.70380107217070260000	     -6.20915051943780400000
